<svg width="80" height="81" viewBox="0 0 80 81" fill="none" xmlns="http://www.w3.org/2000/svg">
<path d="M79.9944 40.9903C79.9944 61.198 65.0196 77.9042 45.5661 80.6152C43.7472 80.8675 41.8862 80.9993 39.9972 80.9993C37.8167 80.9993 35.6754 80.8255 33.5902 80.489C14.546 77.422 0 60.9037 0 40.9903C0 18.893 17.9092 0.978516 40 0.978516C62.0908 0.978516 80 18.893 80 40.9903H79.9944Z" fill="#434343"/>
<path d="M45.566 33.1065V41.8226H56.3451L54.6383 53.5637H45.566V80.6148C43.747 80.8672 41.886 80.9989 39.997 80.9989C37.8165 80.9989 35.6753 80.8251 33.5901 80.4887V53.5637H23.6489V41.8226H33.5901V31.158C33.5901 24.5417 38.9516 19.1758 45.5688 19.1758V19.1814C45.5884 19.1814 45.6052 19.1758 45.6248 19.1758H56.3479V29.3301H49.3412C47.2588 29.3301 45.5688 31.0207 45.5688 33.1037L45.566 33.1065Z" fill="white"/>
</svg>
