<svg width="80" height="81" viewBox="0 0 80 81" fill="none" xmlns="http://www.w3.org/2000/svg">
<path d="M79.9944 40.9922C79.9944 61.2 65.0196 77.9061 45.5661 80.6171C43.7472 80.8695 41.8862 81.0012 39.9972 81.0012C37.8167 81.0012 35.6754 80.8274 33.5902 80.491C14.546 77.424 0 60.9056 0 40.9922C0 18.8949 17.9092 0.980469 40 0.980469C62.0908 0.980469 80 18.8949 80 40.9922H79.9944Z" fill="#31746D"/>
<path fill-rule="evenodd" clip-rule="evenodd" d="M40 23C34.2964 23 33.5824 23.0238 31.3424 23.126C29.1066 23.2282 27.5792 23.5838 26.2436 24.1032C24.8436 24.6296 23.5738 25.4556 22.5238 26.5252C21.4559 27.574 20.6294 28.8429 20.1018 30.2436C19.5852 31.5792 19.2282 33.108 19.126 35.3438C19.0252 37.5824 19 38.295 19 44C19 49.705 19.0238 50.4176 19.126 52.6576C19.2282 54.8934 19.5838 56.4208 20.1032 57.7564C20.6296 59.1564 21.4556 60.4262 22.5252 61.4762C23.574 62.5441 24.8429 63.3706 26.2436 63.8982C27.5792 64.4162 29.1066 64.7718 31.3424 64.874C33.5824 64.9762 34.2964 65 40 65C45.7036 65 46.4176 64.9762 48.6576 64.874C50.8934 64.7718 52.4208 64.4162 53.7564 63.8968C55.1564 63.3704 56.4262 62.5444 57.4762 61.4748C58.5441 60.426 59.3706 59.1571 59.8982 57.7564C60.4162 56.4208 60.7718 54.8934 60.874 52.6576C60.9762 50.4176 61 49.7036 61 44C61 38.2964 60.9762 37.5824 60.874 35.3424C60.7718 33.1066 60.4162 31.5792 59.8968 30.2436C59.3696 28.8423 58.543 27.5728 57.4748 26.5238C56.426 25.4559 55.1571 24.6294 53.7564 24.1018C52.4208 23.5852 50.892 23.2282 48.6562 23.126C46.4176 23.0252 45.705 23 40 23ZM40 26.7842C45.607 26.7842 46.272 26.8052 48.4868 26.906C50.5336 26.9998 51.6452 27.34 52.3858 27.6298C53.3658 28.0092 54.0658 28.4656 54.8008 29.1992C55.5358 29.9342 55.9908 30.6342 56.3702 31.6142C56.6586 32.3548 57.0002 33.4664 57.094 35.5132C57.1948 37.728 57.2158 38.393 57.2158 44C57.2158 49.607 57.1948 50.272 57.094 52.4868C57.0002 54.5336 56.66 55.6452 56.3702 56.3858C56.0341 57.298 55.4978 58.1232 54.8008 58.8008C54.1233 59.498 53.298 60.0343 52.3858 60.3702C51.6452 60.6586 50.5336 61.0002 48.4868 61.094C46.272 61.1948 45.6084 61.2158 40 61.2158C34.3916 61.2158 33.728 61.1948 31.5132 61.094C29.4664 61.0002 28.3548 60.66 27.6142 60.3702C26.702 60.0341 25.8768 59.4978 25.1992 58.8008C24.5022 58.1231 23.966 57.2979 23.6298 56.3858C23.3414 55.6452 22.9998 54.5336 22.906 52.4868C22.8052 50.272 22.7842 49.607 22.7842 44C22.7842 38.393 22.8052 37.728 22.906 35.5132C22.9998 33.4664 23.34 32.3548 23.6298 31.6142C24.0092 30.6342 24.4656 29.9342 25.1992 29.1992C25.8767 28.5021 26.702 27.9658 27.6142 27.6298C28.3548 27.3414 29.4664 26.9998 31.5132 26.906C33.728 26.8052 34.393 26.7842 40 26.7842Z" fill="white"/>
<path fill-rule="evenodd" clip-rule="evenodd" d="M40.0001 51.0055C39.0799 51.0055 38.1687 50.8243 37.3186 50.4722C36.4685 50.12 35.696 49.6039 35.0454 48.9532C34.3947 48.3026 33.8786 47.5301 33.5264 46.68C33.1743 45.8299 32.9931 44.9187 32.9931 43.9985C32.9931 43.0784 33.1743 42.1672 33.5264 41.3171C33.8786 40.4669 34.3947 39.6945 35.0454 39.0438C35.696 38.3932 36.4685 37.877 37.3186 37.5249C38.1687 37.1728 39.0799 36.9915 40.0001 36.9915C41.8584 36.9915 43.6407 37.7298 44.9547 39.0438C46.2688 40.3579 47.007 42.1402 47.007 43.9985C47.007 45.8569 46.2688 47.6392 44.9547 48.9532C43.6407 50.2673 41.8584 51.0055 40.0001 51.0055ZM40.0001 33.2045C37.1373 33.2045 34.3918 34.3418 32.3675 36.366C30.3433 38.3903 29.2061 41.1358 29.2061 43.9985C29.2061 46.8613 30.3433 49.6068 32.3675 51.631C34.3918 53.6553 37.1373 54.7925 40.0001 54.7925C42.8628 54.7925 45.6083 53.6553 47.6326 51.631C49.6568 49.6068 50.794 46.8613 50.794 43.9985C50.794 41.1358 49.6568 38.3903 47.6326 36.366C45.6083 34.3418 42.8628 33.2045 40.0001 33.2045ZM53.9342 33.0085C53.9342 33.6852 53.6654 34.3342 53.1869 34.8127C52.7084 35.2912 52.0594 35.56 51.3827 35.56C50.706 35.56 50.0571 35.2912 49.5786 34.8127C49.1001 34.3342 48.8312 33.6852 48.8312 33.0085C48.8312 32.3318 49.1001 31.6828 49.5786 31.2043C50.0571 30.7258 50.706 30.457 51.3827 30.457C52.0594 30.457 52.7084 30.7258 53.1869 31.2043C53.6654 31.6828 53.9342 32.3318 53.9342 33.0085Z" fill="white"/>
</svg>
