<svg width="80" height="81" viewBox="0 0 80 81" fill="none" xmlns="http://www.w3.org/2000/svg">
<path d="M40.0911 0.976562H39.9089C17.8679 0.976562 0 18.8496 0 40.8972V41.0795C0 63.127 17.8679 81.0001 39.9089 81.0001H40.0911C62.1321 81.0001 80 63.127 80 41.0795V40.8972C80 18.8496 62.1321 0.976562 40.0911 0.976562Z" fill="#434343"/>
<path d="M19.0789 27.5736C18.0251 26.5952 17.501 25.384 17.501 23.943C17.501 22.5019 18.0279 21.2375 19.0789 20.2562C20.1328 19.2777 21.4893 18.7871 23.1514 18.7871C24.8134 18.7871 26.1167 19.2777 27.1678 20.2562C28.2216 21.2347 28.7457 22.4655 28.7457 23.943C28.7457 25.4205 28.2188 26.5952 27.1678 27.5736C26.1139 28.5521 24.777 29.0427 23.1514 29.0427C21.5258 29.0427 20.1328 28.5521 19.0789 27.5736ZM27.8601 33.1865V63.1851H18.3838V33.1865H27.8601Z" fill="#FEFFFC"/>
<path d="M59.4051 36.1495C61.4707 38.3924 62.5022 41.4708 62.5022 45.3902V62.6549H53.5025V46.607C53.5025 44.6304 52.9896 43.094 51.9665 42.0006C50.9435 40.9072 49.5646 40.3577 47.838 40.3577C46.1115 40.3577 44.7325 40.9044 43.7095 42.0006C42.6865 43.094 42.1736 44.6304 42.1736 46.607V62.6549H33.1206V33.102H42.1736V37.0214C43.0901 35.7149 44.3262 34.6832 45.8789 33.9234C47.4316 33.1637 49.1778 32.7852 51.1201 32.7852C54.5787 32.7852 57.3422 33.9066 59.4051 36.1467V36.1495Z" fill="#FEFFFC"/>
</svg>
