<svg width="24" height="24" viewBox="0 0 24 24" fill="none" xmlns="http://www.w3.org/2000/svg">
<path d="M12 1C5.92485 1 1 5.92425 1 11.9999C1 18.0749 5.92485 23 12 23C18.0751 23 23 18.0749 23 11.9999C22.9999 5.92412 18.0751 1 12 1ZM12 22.1199C6.4109 22.1199 1.88007 17.5886 1.88007 12C1.88007 6.41072 6.4109 1.88007 12 1.88007C17.5891 1.88007 22.1199 6.41072 22.1199 12C22.1199 17.5886 17.5891 22.1199 12 22.1199ZM6.43558 15.8061H8.44277V8.59236H6.89784V8.11793C7.61558 7.99628 8.163 7.80164 8.58877 7.55834H9.16052V15.8062H11.0096V16.4266H6.43558V15.8061Z" fill="#235852"/>
<path d="M14.9967 7.5C15.8028 7.5 16.4507 7.68912 16.9404 8.06735C17.4345 8.44559 17.6815 8.9572 17.6815 9.60219C17.6815 10.0481 17.5276 10.4423 17.2199 10.7847C16.9166 11.1271 16.4225 11.4436 15.7378 11.7342C16.5699 12.0488 17.1549 12.3932 17.493 12.7674C17.831 13.1417 18 13.5956 18 14.1291C18 14.8497 17.7248 15.425 17.1744 15.855C16.6284 16.285 15.8938 16.5 14.9707 16.5C14.013 16.5 13.2784 16.2989 12.7671 15.8968C12.2557 15.4947 12 14.9094 12 14.141C12 13.6194 12.1798 13.1616 12.5395 12.7674C12.8992 12.3733 13.4561 12.0368 14.2102 11.7581C13.5125 11.4555 13.0206 11.137 12.7346 10.8026C12.4485 10.4642 12.3055 10.0601 12.3055 9.59025C12.3055 9.1722 12.4204 8.80591 12.6501 8.49137C12.8797 8.17286 13.2004 7.928 13.6121 7.7568C14.0282 7.5856 14.4897 7.5 14.9967 7.5ZM12.6631 14.2306C12.6631 14.78 12.8646 15.206 13.2676 15.5086C13.675 15.8112 14.2427 15.9625 14.9707 15.9625C15.6815 15.9625 16.2535 15.8033 16.6869 15.4847C17.1203 15.1622 17.3369 14.7263 17.3369 14.1768C17.3369 13.6831 17.1658 13.283 16.8234 12.9764C16.4854 12.6659 15.831 12.3414 14.8602 12.003C14.0628 12.2857 13.4973 12.5982 13.1636 12.9406C12.8299 13.283 12.6631 13.713 12.6631 14.2306ZM14.9837 8.03749C14.3727 8.03749 13.8808 8.17684 13.5081 8.45554C13.1398 8.73026 12.9556 9.10849 12.9556 9.59025C12.9556 9.86894 13.0228 10.1158 13.1571 10.3308C13.2958 10.5418 13.493 10.7349 13.7486 10.9101C14.0087 11.0813 14.442 11.2823 15.0488 11.5133C15.7551 11.2624 16.2622 10.9857 16.5699 10.6831C16.8776 10.3806 17.0314 10.0163 17.0314 9.59025C17.0314 9.11248 16.8472 8.73424 16.4789 8.45554C16.1148 8.17684 15.6165 8.03749 14.9837 8.03749Z" fill="#235852"/>
</svg>
