<svg width="24" height="24" viewBox="0 0 24 24" fill="none" xmlns="http://www.w3.org/2000/svg">
<path d="M12 1C5.92485 1 1 5.92425 1 11.9999C1 18.0749 5.92485 23 12 23C18.0751 23 23 18.0749 23 11.9999C22.9999 5.92412 18.0751 1 12 1ZM12 22.1199C6.4109 22.1199 1.88007 17.5886 1.88007 12C1.88007 6.41072 6.4109 1.88007 12 1.88007C17.5891 1.88007 22.1199 6.41072 22.1199 12C22.1199 17.5886 17.5891 22.1199 12 22.1199ZM6.43558 15.8061H8.44277V8.59236H6.89785V8.11793C7.61558 7.99628 8.163 7.80164 8.58877 7.55834H9.16052V15.8062H11.0096V16.4266H6.43558V15.8061ZM17.1892 8.71398C16.8121 8.25172 16.289 8.00842 15.7416 8.00842C14.4035 8.00842 13.2721 9.06677 13.2357 12.1201C13.8196 11.4024 14.5981 10.9645 15.3767 10.9645C16.8851 10.9645 17.7853 11.9255 17.7853 13.7502C17.7853 15.4168 16.6783 16.5847 15.3888 16.5847C13.6736 16.5847 12.5423 15.064 12.5423 12.2418C12.5423 8.6653 14.0629 7.40015 15.7295 7.40015C16.5567 7.40015 17.1528 7.74077 17.615 8.25169L17.1892 8.71398ZM17.0797 13.7503C17.0797 12.4608 16.5445 11.5362 15.2793 11.5362C14.6954 11.5362 13.929 11.8769 13.2478 12.8014C13.3573 14.7478 14.0507 15.9886 15.401 15.9886C16.362 15.9886 17.0797 15.0397 17.0797 13.7503Z" fill="#235852"/>
</svg>
