<svg width="24" height="24" viewBox="0 0 24 24" fill="none" xmlns="http://www.w3.org/2000/svg">
<path d="M6.48288 4.97656C6.93181 4.97656 7.34 5.15914 7.63538 5.45287C7.64256 5.46009 7.64944 5.46755 7.65581 5.47501C7.93919 5.76718 8.11425 6.16411 8.11425 6.59921V10.1612H15.8858V6.59921C15.8858 6.16411 16.0608 5.76718 16.3442 5.47501C16.3507 5.46755 16.3574 5.46009 16.3646 5.45287C16.6602 5.15914 17.0682 4.97656 17.5173 4.97656C17.9538 4.97656 18.3523 5.15038 18.6468 5.43205C18.6546 5.4387 18.6623 5.44573 18.6696 5.45306C18.9651 5.74686 19.1486 6.15267 19.1486 6.59921V7.22608C19.4078 7.05295 19.7191 6.95169 20.0528 6.95169C20.5008 6.95169 20.9083 7.13427 21.2038 7.428L21.2045 7.42881L21.2053 7.428C21.5006 7.72198 21.6842 8.1278 21.6842 8.57433V8.98891C21.9155 8.84711 22.1878 8.76499 22.4784 8.76499H22.4786C22.8858 8.76499 23.2573 8.927 23.5311 9.18896C23.5388 9.1953 23.5461 9.20214 23.5533 9.20935C23.8289 9.48338 24 9.86196 24 10.2785V12.7235C24 13.1278 23.8376 13.4972 23.5743 13.7699C23.5677 13.7775 23.5606 13.7852 23.5533 13.7923C23.2778 14.0664 22.8973 14.2367 22.4786 14.2367H22.4784C22.1878 14.2367 21.9157 14.1547 21.6842 14.0129V14.4273C21.6842 14.8739 21.5006 15.2797 21.2053 15.5737C21.1981 15.5808 21.1906 15.5875 21.1831 15.594C20.8893 15.8759 20.4903 16.05 20.0528 16.05C19.7191 16.05 19.4078 15.9487 19.1486 15.7756V16.4025C19.1486 16.8489 18.9651 17.2548 18.6696 17.5486C18.3743 17.8425 17.9661 18.0251 17.5173 18.0251C17.0682 18.0251 16.6602 17.8425 16.3646 17.5488L16.3654 17.548L16.3646 17.5474C16.0693 17.2534 15.8858 16.8481 15.8858 16.4025V12.8404H8.11425V16.4025C8.11425 16.8481 7.93075 17.2534 7.63538 17.5474L7.63475 17.548L7.63538 17.5488C7.34 17.8425 6.93181 18.0251 6.48288 18.0251C6.03394 18.0251 5.62594 17.8425 5.33038 17.5486C5.32306 17.5413 5.316 17.5336 5.30925 17.5259C5.02625 17.2331 4.8515 16.8366 4.8515 16.4025V15.7756C4.59219 15.9487 4.28094 16.05 3.94738 16.05C3.49838 16.05 3.09025 15.8674 2.79488 15.5737C2.49944 15.2797 2.31594 14.8739 2.31594 14.4273V14.0129C2.08444 14.1547 1.81231 14.2367 1.52175 14.2367H1.52156C1.10281 14.2367 0.722188 14.0664 0.446625 13.7923C0.171188 13.5185 0 13.1398 0 12.7235V10.2785C0 9.86308 0.1715 9.48462 0.447438 9.2101L0.44675 9.20935C0.72225 8.93526 1.10281 8.76499 1.52156 8.76499H1.52175C1.81231 8.76499 2.08456 8.84711 2.31594 8.98891V8.57433C2.31594 8.1278 2.49944 7.72198 2.79488 7.428C3.09025 7.13427 3.49838 6.95169 3.94738 6.95169C4.28094 6.95169 4.59219 7.05295 4.8515 7.22608V6.59921C4.8515 6.1541 5.03475 5.74903 5.33038 5.4543L5.33119 5.45368L5.33181 5.45306L5.33294 5.45176C5.62913 5.15833 6.03581 4.97656 6.48288 4.97656ZM7.12125 5.96437C6.95725 5.80125 6.73119 5.70004 6.48288 5.70004C6.23363 5.70004 6.00769 5.80075 5.84463 5.96313L5.84319 5.96437C5.68019 6.12669 5.57875 6.35142 5.57875 6.59921V16.4025C5.57875 16.6424 5.67375 16.8609 5.82819 17.0219L5.84463 17.0373C6.0085 17.2002 6.23456 17.3016 6.48288 17.3016C6.73119 17.3016 6.95725 17.2004 7.12125 17.0373L7.12194 17.0379C7.28544 16.875 7.38706 16.6499 7.38706 16.4025V6.59921C7.38706 6.35925 7.2915 6.14043 7.13663 5.97886L7.12125 5.96437ZM8.11425 10.8846V12.1169H15.8858V10.8846H8.11425ZM4.8515 14.4273V8.57433C4.8515 8.32753 4.74963 8.10249 4.58575 7.9395L4.57119 7.92408C4.40863 7.77016 4.18863 7.67517 3.94738 7.67517C3.69906 7.67517 3.47288 7.77656 3.309 7.9395C3.14513 8.10249 3.04325 8.32735 3.04325 8.57433V14.4273C3.04325 14.6743 3.14513 14.8992 3.309 15.0622C3.47288 15.2253 3.69906 15.3265 3.94738 15.3265C4.19631 15.3265 4.42238 15.2254 4.58638 15.0628L4.58575 15.0622C4.74963 14.8992 4.8515 14.6741 4.8515 14.4273ZM2.31594 12.7235V10.2785C2.31594 10.068 2.233 9.87676 2.09825 9.73558L2.08238 9.72079C1.93838 9.57756 1.73975 9.48847 1.52175 9.48847H1.52156C1.3035 9.48847 1.10488 9.57756 0.960875 9.72079L0.960188 9.72004L0.959563 9.72079C0.816375 9.86327 0.727313 10.0606 0.727313 10.2785V12.7235C0.727313 12.9403 0.816875 13.138 0.960813 13.281C1.10481 13.4242 1.3035 13.5132 1.52156 13.5132H1.52175C1.73975 13.5132 1.9385 13.4242 2.0825 13.281C2.22638 13.138 2.31594 12.9403 2.31594 12.7235ZM17.5173 5.70004C17.2689 5.70004 17.0428 5.80125 16.8789 5.96437L16.8634 5.97886C16.7086 6.14043 16.6131 6.35925 16.6131 6.59921V16.4025C16.6131 16.6499 16.7148 16.875 16.8783 17.0379L16.8789 17.0373C17.0428 17.2004 17.2689 17.3016 17.5173 17.3016C17.7654 17.3016 17.9915 17.2002 18.1555 17.0373C18.3194 16.8742 18.4213 16.6493 18.4213 16.4025V6.59921C18.4213 6.35222 18.3194 6.1275 18.1555 5.96437L18.14 5.94796C17.9783 5.7946 17.7586 5.70004 17.5173 5.70004ZM19.1486 8.57433V14.4273C19.1486 14.6741 19.2504 14.8992 19.4144 15.0622L19.4138 15.0628C19.5776 15.2254 19.8038 15.3265 20.0528 15.3265C20.2941 15.3265 20.5141 15.2315 20.6766 15.0776L20.6911 15.0622C20.8551 14.8992 20.9568 14.6741 20.9568 14.4273V8.57433C20.9568 8.32753 20.8551 8.10249 20.6911 7.9395L20.6917 7.93887C20.5278 7.77625 20.3016 7.67517 20.0528 7.67517C19.8114 7.67517 19.5915 7.77016 19.4289 7.92408L19.4144 7.9395C19.2504 8.10249 19.1486 8.32753 19.1486 8.57433ZM21.6842 10.2785V12.7235C21.6842 12.9403 21.7738 13.138 21.9176 13.281C22.0616 13.4242 22.2603 13.5132 22.4784 13.5132H22.4786C22.6966 13.5132 22.8952 13.4242 23.0392 13.281L23.0551 13.2662C23.1898 13.1252 23.2726 12.9338 23.2726 12.7235V10.2785C23.2726 10.0615 23.1832 9.86389 23.0392 9.72066L23.0251 9.70587C22.8826 9.5714 22.6899 9.48847 22.4786 9.48847H22.4784C22.2603 9.48847 22.0618 9.57756 21.9178 9.72079L21.9019 9.73558C21.7672 9.87676 21.6842 10.068 21.6842 10.2785Z" fill="#235852"/>
</svg>
