<svg width="24" height="24" viewBox="0 0 24 24" fill="none" xmlns="http://www.w3.org/2000/svg">
<path fill-rule="evenodd" clip-rule="evenodd" d="M12 21C16.9705 21 21 16.9705 21 12C21 7.0295 16.9705 3 12 3C7.0295 3 3 7.0295 3 12C3 16.9705 7.0295 21 12 21ZM12 22C17.523 22 22 17.523 22 12C22 6.477 17.523 2 12 2C6.477 2 2 6.477 2 12C2 17.523 6.477 22 12 22Z" fill="#3DBA88"/>
<path fill-rule="evenodd" clip-rule="evenodd" d="M17.3348 8.12901C17.4332 8.21788 17.4922 8.34217 17.499 8.47456C17.5057 8.60695 17.4596 8.7366 17.3708 8.83501L10.6928 16.2155L6.65483 12.361C6.56416 12.2683 6.51303 12.1441 6.51222 12.0144C6.51141 11.8848 6.56099 11.7599 6.6505 11.6661C6.74 11.5723 6.86244 11.517 6.99198 11.5117C7.12152 11.5065 7.24803 11.5518 7.34483 11.638L10.6398 14.783L16.6293 8.16451C16.6734 8.1158 16.7267 8.07625 16.786 8.04813C16.8454 8.02001 16.9097 8.00386 16.9753 8.00061C17.0409 7.99736 17.1065 8.00707 17.1684 8.02919C17.2303 8.05131 17.2872 8.0854 17.3358 8.12951" fill="#3DBA88"/>
</svg>
