<svg width="24" height="24" viewBox="0 0 24 24" fill="none" xmlns="http://www.w3.org/2000/svg">
<mask id="mask0_2770_1540" style="mask-type:luminance" maskUnits="userSpaceOnUse" x="4" y="0" width="16" height="24">
<path d="M20 0.667969H4V23.3346H20V0.667969Z" fill="white"/>
</mask>
<g mask="url(#mask0_2770_1540)">
<path d="M17.9546 23.3239H6.04502C4.91638 23.3221 4.00184 22.4206 4 21.3079V11.2768C3.99935 10.4694 4.2996 9.68982 4.84362 9.08618L7.07574 6.61395C7.13803 6.54413 7.22764 6.50401 7.32189 6.50391H16.6281C16.7208 6.50412 16.809 6.54286 16.871 6.61065L19.1328 9.08608C19.6903 9.69227 19.9991 10.4812 19.9995 11.2994V21.3306C19.9851 22.4343 19.0742 23.3222 17.9544 23.3239H17.9546ZM7.45004 7.14458L5.33269 9.50677C4.89641 9.99217 4.65576 10.6185 4.65652 11.2671V21.2984C4.65393 21.6631 4.79903 22.0138 5.05965 22.2725C5.32038 22.5313 5.67503 22.6768 6.04502 22.6768H17.9546C18.7207 22.675 19.3412 22.0632 19.3431 21.3079V11.2768C19.3441 10.6188 19.0959 9.98409 18.6471 9.49709L16.4839 7.14458H7.45004Z" fill="#235852"/>
</g>
<path d="M16.6315 7.14479C16.4503 7.14479 16.3032 6.99995 16.3032 6.82116V4.98321H7.63709V6.82116C7.63709 6.99984 7.49016 7.14479 7.30878 7.14479C7.12741 7.14479 6.98047 6.99995 6.98047 6.82116V4.65957C6.98047 4.48089 7.12741 4.33594 7.30878 4.33594H16.6314C16.8127 4.33594 16.9597 4.48078 16.9597 4.65957V6.82116C16.9597 6.99984 16.8128 7.14479 16.6314 7.14479H16.6315Z" fill="#235852"/>
<path d="M17.2785 4.98596H6.66249C6.09861 4.98596 5.6416 4.53536 5.6416 3.97962V1.68213C5.6416 1.12638 6.09861 0.675781 6.66249 0.675781H17.2785C17.8417 0.67759 18.2976 1.12702 18.2994 1.68213V3.97962C18.2976 4.53473 17.8415 4.98426 17.2785 4.98596ZM6.66249 1.32295C6.46125 1.32295 6.29812 1.48375 6.29812 1.68213V3.97962C6.29812 4.17799 6.46125 4.3388 6.66249 4.3388H17.2785C17.4798 4.3388 17.6429 4.17799 17.6429 3.97962V1.68213C17.6429 1.58688 17.6046 1.49546 17.5362 1.4282C17.4679 1.36083 17.3753 1.32295 17.2785 1.32295H6.66249Z" fill="#235852"/>
<path d="M19.6713 11.8465H4.32831C4.14704 11.8465 4 11.7016 4 11.5229C4 11.3441 4.14694 11.1992 4.32831 11.1992H19.6713C19.8525 11.1992 19.9996 11.3441 19.9996 11.5229C19.9996 11.7016 19.8526 11.8465 19.6713 11.8465Z" fill="#235852"/>
<path d="M19.6713 20.3386H4.32831C4.14704 20.3386 4 20.1937 4 20.0149C4 19.8361 4.14694 19.6914 4.32831 19.6914H19.6713C19.8525 19.6914 19.9996 19.8362 19.9996 20.0149C19.9996 20.1936 19.8526 20.3386 19.6713 20.3386Z" fill="#235852"/>
<path d="M12.0002 18.2839C11.8189 18.2839 11.6719 18.1391 11.6719 17.9603V14.2649C11.6719 14.0862 11.8188 13.9414 12.0002 13.9414C12.1816 13.9414 12.3285 14.0862 12.3285 14.2649V17.9603C12.3285 18.139 12.1816 18.2839 12.0002 18.2839Z" fill="#235852"/>
<path d="M13.8776 16.4324H10.1223C9.94099 16.4324 9.79395 16.2876 9.79395 16.1088C9.79395 15.93 9.94088 15.7852 10.1223 15.7852H13.8776C14.0589 15.7852 14.2059 15.93 14.2059 16.1088C14.2059 16.2876 14.059 16.4324 13.8776 16.4324Z" fill="#235852"/>
</svg>
