<svg width="24" height="24" viewBox="0 0 24 24" fill="none" xmlns="http://www.w3.org/2000/svg">
<path d="M19.3783 1H4.62129C2.62433 1 1 2.62433 1 4.62129V19.3792C1 21.3752 2.62433 23 4.62129 23H19.3792C21.3752 23 23 21.3752 23 19.3792V4.62129C23 2.62433 21.3752 1 19.3783 1ZM22.0815 19.3792C22.0815 20.8697 20.8687 22.082 19.3783 22.082H4.62129C3.13079 22.082 1.91804 20.8692 1.91804 19.3792V4.62129C1.91804 3.13079 3.13079 1.91804 4.62129 1.91804H19.3783C20.8687 1.91804 22.0815 3.13125 22.0815 4.62129V19.3792Z" fill="#235852"/>
<path d="M12.0005 13C9.02751 13 6.23614 14.0725 4.13976 16.0196C3.95341 16.1926 3.95341 16.4708 4.13976 16.6448L7.61186 19.8705C7.70456 19.9562 7.82673 19.9999 7.94842 19.9999C8.07012 19.9999 8.19181 19.9562 8.28546 19.8705C9.27565 18.9504 10.5953 18.4444 12 18.4444C13.4042 18.4444 14.7243 18.9504 15.7141 19.8705C15.9009 20.0432 16.2013 20.0432 16.3881 19.8705L19.8602 16.6448C20.0466 16.4708 20.0466 16.1926 19.8602 16.0196C17.7643 14.0725 14.9734 13 12.0005 13ZM16.0387 18.9438C15.4873 18.5036 14.8641 18.1632 14.1962 17.9296L15.1598 16.1397C15.2767 15.9207 15.1821 15.6553 14.9468 15.5463C14.7115 15.4376 14.4253 15.5251 14.3074 15.7436L13.2635 17.6823C12.8519 17.6038 12.4297 17.5592 11.9995 17.5592C10.5002 17.5592 9.08361 18.0475 7.96031 18.9438L5.15657 16.3401C7.02953 14.7528 9.44108 13.8844 11.9995 13.8844C14.5584 13.8844 16.97 14.7528 18.8425 16.3401L16.0387 18.9438Z" fill="#235852"/>
</svg>
