<svg width="24" height="24" viewBox="0 0 24 24" fill="none" xmlns="http://www.w3.org/2000/svg">
<g clip-path="url(#clip0_2770_1493)">
<mask id="mask0_2770_1493" style="mask-type:luminance" maskUnits="userSpaceOnUse" x="0" y="0" width="24" height="24">
<path d="M24 0.46875H0V23.5276H24V0.46875Z" fill="white"/>
</mask>
<g mask="url(#mask0_2770_1493)">
<path d="M9.51173 5.54922L9.46942 5.55364C8.14451 5.70388 6.8736 4.6139 6.74665 3.28973C6.60949 1.85067 7.63673 0.613406 9.0594 0.483788C9.65473 0.405722 10.3186 0.639919 10.7929 0.993424C12.5774 2.32054 11.8668 5.21044 9.51173 5.54922ZM9.11339 1.21731C6.67224 1.48244 7.12165 5.04105 9.39208 4.84221C11.8843 4.54026 11.3313 0.918304 9.11339 1.21731Z" fill="#235852"/>
<path d="M3.72461 12.9172C3.04903 13.01 1.44981 12.3472 0.959536 12.0231C0.065081 11.431 0.346696 10.6385 0.591832 9.84022L1.84086 5.95756C2.14436 5.03844 2.28152 4.16794 3.38172 3.96025C3.97267 3.88366 5.34572 4.44338 5.78201 4.72176C6.17889 4.97511 6.32335 5.389 6.42111 5.82794C7.29514 5.53482 8.37199 5.63793 9.09718 6.24625C9.84135 6.8693 10.6818 8.59706 11.3837 9.4926L11.3997 9.51322C11.6828 9.58982 11.979 9.63106 12.2664 9.6885L13.9313 10.0155C14.4537 10.1157 15.0636 10.1436 15.4474 10.5664C16.2295 11.4251 15.4882 12.7655 14.3924 12.6918C13.9007 12.6594 13.3491 12.5313 12.8559 12.4488L11.3486 12.1969C10.2908 12.0143 10.0558 12.0481 9.32919 11.2159L8.8214 13.4577C9.38609 14.2855 10.1653 15.1354 10.7927 15.9338C11.4508 16.7719 11.3311 16.5185 11.5019 17.5363L12.0986 20.9329C12.2212 21.5972 12.3773 22.1996 11.9863 22.8109C11.5208 23.54 10.5213 23.7212 9.8107 23.2469C9.1322 22.7932 9.10594 21.8918 8.95565 21.1538C8.87831 20.7709 8.36615 17.962 8.29611 17.8589C7.97072 17.3728 7.31265 16.7777 6.91576 16.2593C6.81216 16.6938 6.63123 17.1327 6.49553 17.5599L6.18181 18.5659C5.92938 19.379 5.87393 19.3539 5.30924 19.9976L3.16722 22.4662C2.97753 22.6931 2.79222 22.9435 2.57335 23.1423C1.31119 24.2809 -1.14455 22.7225 0.61226 20.6575L2.61566 18.3199C3.17598 17.66 3.12928 17.8633 3.30584 17.0002L3.75234 14.941C3.94786 14.0646 3.66479 13.7347 3.72316 12.9187L3.72461 12.9172ZM3.46343 4.67463C2.76012 4.93976 2.63317 5.86623 2.39096 6.54526C2.92063 7.20513 3.79757 7.61756 4.6395 7.59399C4.8394 7.59841 5.0072 7.5822 5.19981 7.53065C5.30487 7.22281 5.40409 6.91349 5.50185 6.6027C5.8929 5.37575 5.57627 5.38606 4.5928 5.00604C4.24991 4.87347 3.8428 4.62897 3.46343 4.67463ZM7.18862 6.39944C6.83989 6.45099 6.51158 6.55704 6.2037 6.73232L5.15166 10.1525C4.80146 11.2645 4.21926 12.5828 4.46148 13.7759C4.59864 14.4564 4.60448 14.3017 4.46002 15.0088L3.95954 17.3831C3.78736 18.1815 3.8107 18.0401 3.2752 18.6572L2.07724 20.055C1.83065 20.3408 0.829673 21.444 0.739206 21.6708C0.422571 22.4648 1.44251 23.3279 2.23191 22.4618C3.12199 21.4853 4.02228 20.4056 4.89339 19.3981C5.39096 18.8237 5.33113 18.8929 5.55292 18.1829C5.74845 17.5569 6.12491 16.2048 6.42403 15.6716L6.39923 15.651C6.20662 15.4948 5.49602 14.698 5.36323 14.4888C5.13123 14.125 5.57481 13.7243 5.88123 14.0366C6.78444 14.9557 8.05681 16.4242 8.85496 17.4273C9.03298 17.6497 9.04903 17.9237 9.10156 18.1962L9.32919 19.3745C9.38172 19.6441 9.41965 19.9284 9.51596 20.1861C9.54076 20.684 9.79319 22.2954 10.1434 22.6047C10.7416 23.132 11.6346 22.6106 11.5398 21.8417C11.496 21.4882 11.4114 21.1347 11.3457 20.7841L10.8234 17.8176C10.7606 17.4656 10.746 17.0296 10.5403 16.7277C10.0135 15.9603 9.17889 15.0691 8.57919 14.315C8.41138 14.1044 8.2071 13.8937 8.06849 13.664C8.12247 12.8259 8.58356 11.3735 8.74699 10.4662C8.47705 10.176 7.68181 9.23926 7.49212 8.90343C7.29514 8.55729 7.72851 8.21115 8.01012 8.46449C8.4931 8.90196 9.36567 10.0774 9.7932 10.612C10.514 11.5135 10.5768 11.3323 11.7105 11.5194L12.9245 11.7241C13.3535 11.7963 14.4887 12.1336 14.8404 11.836C15.0665 11.6446 15.1264 11.2793 14.9104 11.0569C14.6478 10.7873 14.0349 10.7682 13.6906 10.7004L11.7966 10.3351C10.8876 10.1598 10.9882 10.232 10.4761 9.44105C10.1813 8.98444 9.87345 8.53814 9.57578 8.08448C8.98921 7.18893 8.48142 6.21385 7.193 6.40091L7.18862 6.39944ZM2.14728 7.35243L1.48775 9.35415C1.30973 9.89177 0.745042 11.0141 1.33016 11.428C1.5928 11.6136 3.3321 12.4414 3.72607 12.1188C3.89679 11.8935 3.94786 11.5945 4.03249 11.3294L4.40749 10.1451C4.57967 9.59129 4.8394 8.88428 4.943 8.32162C3.8253 8.34371 3.01401 8.06975 2.14728 7.35095V7.35243Z" fill="#235852"/>
<path d="M12.335 18.2153C13.9998 17.3079 15.3262 15.4476 17.3048 15.427C20.4741 15.3533 21.2007 18.666 23.2858 20.351C23.5032 20.5263 24.0008 20.7384 23.9964 21.0728C23.9935 21.2642 23.8432 21.4395 23.6477 21.4263C22.9575 21.3806 21.3627 19.3656 20.9964 18.8324C20.7046 18.4082 20.4493 17.9825 20.1122 17.5907C18.9186 16.2607 17.3004 15.5831 15.6793 16.6554C14.5587 17.3963 13.7314 18.2565 12.4736 18.965L12.3364 18.2153H12.335Z" fill="#235852"/>
</g>
<path d="M5.60503 21.3588C4.47127 20.6415 7.72371 19.7828 8.0666 19.7194C8.1775 19.6959 8.1848 20.2777 8.19793 20.3941C7.61135 20.5531 7.01894 20.7343 6.4776 21.0142C6.21057 21.1526 5.9202 21.4516 5.60503 21.3588Z" fill="#235852"/>
</g>
<defs>
<clipPath id="clip0_2770_1493">
<rect width="24" height="24" fill="white"/>
</clipPath>
</defs>
</svg>
