<svg width="24" height="24" viewBox="0 0 24 24" fill="none" xmlns="http://www.w3.org/2000/svg">
<path d="M11.988 0.78916C11.7761 0.792472 11.5741 0.87972 11.4265 1.03176C11.2788 1.18379 11.1976 1.38819 11.2005 1.6001V4.0001C11.199 4.10611 11.2185 4.21136 11.2581 4.30973C11.2976 4.40811 11.3563 4.49764 11.4307 4.57314C11.5052 4.64863 11.5939 4.70858 11.6917 4.7495C11.7895 4.79042 11.8944 4.81149 12.0005 4.81149C12.1065 4.81149 12.2114 4.79042 12.3092 4.7495C12.4071 4.70858 12.4957 4.64863 12.5702 4.57314C12.6446 4.49764 12.7033 4.40811 12.7428 4.30973C12.7824 4.21136 12.802 4.10611 12.8005 4.0001V1.6001C12.8019 1.49307 12.7819 1.38683 12.7416 1.28768C12.7012 1.18852 12.6414 1.09847 12.5656 1.02286C12.4899 0.947239 12.3997 0.887594 12.3005 0.847452C12.2013 0.80731 12.095 0.787488 11.988 0.78916ZM4.63796 3.83916C4.47894 3.83951 4.32364 3.88724 4.19187 3.97625C4.06011 4.06526 3.95785 4.19151 3.89816 4.3389C3.83847 4.48628 3.82405 4.64811 3.85674 4.80373C3.88943 4.95935 3.96775 5.10169 4.08171 5.2126L5.77858 6.90947C5.8523 6.98625 5.94059 7.04755 6.0383 7.08977C6.136 7.132 6.24114 7.15431 6.34758 7.15539C6.45401 7.15647 6.55958 7.13631 6.65813 7.09607C6.75667 7.05584 6.84619 6.99635 6.92145 6.92109C6.99671 6.84583 7.0562 6.75631 7.09643 6.65777C7.13666 6.55923 7.15683 6.45365 7.15575 6.34722C7.15467 6.24079 7.13236 6.13564 7.09013 6.03794C7.0479 5.94023 6.98661 5.85194 6.90983 5.77822L5.21296 4.08135C5.13822 4.00452 5.04881 3.9435 4.95004 3.90189C4.85126 3.86029 4.74514 3.83896 4.63796 3.83916ZM19.338 3.83916C19.1301 3.84535 18.9329 3.93222 18.788 4.08135L17.0911 5.77822C17.0143 5.85194 16.953 5.94023 16.9108 6.03794C16.8686 6.13564 16.8463 6.24078 16.8452 6.34722C16.8441 6.45365 16.8643 6.55922 16.9045 6.65776C16.9447 6.7563 17.0042 6.84583 17.0795 6.92109C17.1547 6.99635 17.2442 7.05584 17.3428 7.09607C17.4413 7.1363 17.5469 7.15647 17.6533 7.15539C17.7598 7.1543 17.8649 7.132 17.9626 7.08977C18.0603 7.04754 18.1486 6.98625 18.2223 6.90947L19.9192 5.2126C20.0348 5.10023 20.1138 4.95555 20.1457 4.79754C20.1777 4.63952 20.1612 4.47554 20.0984 4.32707C20.0355 4.1786 19.9293 4.05257 19.7936 3.96551C19.6579 3.87845 19.4991 3.83441 19.338 3.83916ZM12.0005 6.4001C10.5152 6.4001 9.09086 6.9901 8.04066 8.0403C6.99045 9.0905 6.40046 10.5149 6.40046 12.0001C6.40046 13.4853 6.99045 14.9097 8.04066 15.9599C9.09086 17.0101 10.5152 17.6001 12.0005 17.6001C13.4857 17.6001 14.91 17.0101 15.9603 15.9599C17.0105 14.9097 17.6005 13.4853 17.6005 12.0001C17.6005 10.5149 17.0105 9.0905 15.9603 8.0403C14.91 6.9901 13.4857 6.4001 12.0005 6.4001ZM1.60046 11.2001C1.49445 11.1986 1.3892 11.2182 1.29082 11.2577C1.19245 11.2972 1.10291 11.3559 1.02741 11.4304C0.951919 11.5048 0.89197 11.5935 0.851052 11.6913C0.810134 11.7891 0.789062 11.8941 0.789062 12.0001C0.789062 12.1061 0.810134 12.2111 0.851052 12.3089C0.89197 12.4067 0.951919 12.4954 1.02741 12.5698C1.10291 12.6443 1.19245 12.703 1.29082 12.7425C1.3892 12.782 1.49445 12.8016 1.60046 12.8001H4.00046C4.10647 12.8016 4.21172 12.782 4.31009 12.7425C4.40847 12.703 4.498 12.6443 4.5735 12.5698C4.64899 12.4954 4.70894 12.4067 4.74986 12.3089C4.79078 12.2111 4.81185 12.1061 4.81185 12.0001C4.81185 11.8941 4.79078 11.7891 4.74986 11.6913C4.70894 11.5935 4.64899 11.5048 4.5735 11.4304C4.498 11.3559 4.40847 11.2972 4.31009 11.2577C4.21172 11.2182 4.10647 11.1986 4.00046 11.2001H1.60046ZM20.0005 11.2001C19.8944 11.1986 19.7892 11.2182 19.6908 11.2577C19.5924 11.2972 19.5029 11.3559 19.4274 11.4304C19.3519 11.5048 19.292 11.5935 19.2511 11.6913C19.2101 11.7891 19.1891 11.8941 19.1891 12.0001C19.1891 12.1061 19.2101 12.2111 19.2511 12.3089C19.292 12.4067 19.3519 12.4954 19.4274 12.5698C19.5029 12.6443 19.5924 12.703 19.6908 12.7425C19.7892 12.782 19.8944 12.8016 20.0005 12.8001H22.4005C22.5065 12.8016 22.6117 12.782 22.7101 12.7425C22.8085 12.703 22.898 12.6443 22.9735 12.5698C23.049 12.4954 23.1089 12.4067 23.1499 12.3089C23.1908 12.2111 23.2118 12.1061 23.2118 12.0001C23.2118 11.8941 23.1908 11.7891 23.1499 11.6913C23.1089 11.5935 23.049 11.5048 22.9735 11.4304C22.898 11.3559 22.8085 11.2972 22.7101 11.2577C22.6117 11.2182 22.5065 11.1986 22.4005 11.2001H20.0005ZM6.32858 16.8485C6.12074 16.8547 5.92348 16.9416 5.77858 17.0907L4.08171 18.7876C4.00493 18.8613 3.94363 18.9496 3.90141 19.0473C3.85918 19.145 3.83687 19.2502 3.83579 19.3566C3.83471 19.463 3.85488 19.5686 3.89511 19.6671C3.93534 19.7657 3.99483 19.8552 4.07009 19.9305C4.14535 20.0057 4.23487 20.0652 4.33341 20.1054C4.43196 20.1457 4.53753 20.1658 4.64396 20.1648C4.75039 20.1637 4.85554 20.1414 4.95324 20.0991C5.05094 20.0569 5.13924 19.9956 5.21296 19.9188L6.90983 18.222C7.02543 18.1096 7.10439 17.9649 7.13636 17.8069C7.16833 17.6489 7.15181 17.4849 7.08898 17.3364C7.02615 17.188 6.91993 17.062 6.78424 16.9749C6.64855 16.8878 6.48973 16.8438 6.32858 16.8485ZM17.6489 16.8485C17.4897 16.8486 17.3342 16.8961 17.2022 16.985C17.0702 17.0739 16.9677 17.2001 16.9078 17.3476C16.8479 17.495 16.8334 17.657 16.866 17.8127C16.8987 17.9685 16.977 18.111 17.0911 18.222L18.788 19.9188C18.8617 19.9956 18.95 20.0569 19.0477 20.0991C19.1454 20.1414 19.2505 20.1637 19.3569 20.1648C19.4634 20.1658 19.569 20.1457 19.6675 20.1054C19.766 20.0652 19.8556 20.0057 19.9308 19.9305C20.0061 19.8552 20.0656 19.7657 20.1058 19.6671C20.146 19.5686 20.1662 19.463 20.1651 19.3566C20.164 19.2502 20.1417 19.145 20.0995 19.0473C20.0573 18.9496 19.996 18.8613 19.9192 18.7876L18.2223 17.0907C18.1478 17.0141 18.0586 16.9532 17.9601 16.9116C17.8616 16.87 17.7558 16.8485 17.6489 16.8485ZM11.988 19.1892C11.7761 19.1925 11.5741 19.2797 11.4265 19.4318C11.2788 19.5838 11.1976 19.7882 11.2005 20.0001V22.4001C11.199 22.5061 11.2185 22.6114 11.2581 22.7097C11.2976 22.8081 11.3563 22.8976 11.4307 22.9731C11.5052 23.0486 11.5939 23.1086 11.6917 23.1495C11.7895 23.1904 11.8944 23.2115 12.0005 23.2115C12.1065 23.2115 12.2114 23.1904 12.3092 23.1495C12.4071 23.1086 12.4957 23.0486 12.5702 22.9731C12.6446 22.8976 12.7033 22.8081 12.7428 22.7097C12.7824 22.6114 12.802 22.5061 12.8005 22.4001V20.0001C12.8019 19.8931 12.7819 19.7868 12.7416 19.6877C12.7012 19.5885 12.6414 19.4985 12.5656 19.4229C12.4899 19.3472 12.3997 19.2876 12.3005 19.2475C12.2013 19.2073 12.095 19.1875 11.988 19.1892Z" fill="#ED9C4B"/>
</svg>
