<svg width="80" height="81" viewBox="0 0 80 81" fill="none" xmlns="http://www.w3.org/2000/svg">
<path d="M79.9944 40.9903C79.9944 61.198 65.0196 77.9042 45.5661 80.6152C43.7472 80.8675 41.8862 80.9993 39.9972 80.9993C37.8167 80.9993 35.6754 80.8255 33.5902 80.4891C14.546 77.422 0 60.9037 0 40.9903C0 18.893 17.9092 0.978516 40 0.978516C62.0908 0.978516 80 18.893 80 40.9903H79.9944Z" fill="#434343"/>
<path d="M16.2214 18.627L34.6687 43.2979L16.1064 63.3571H20.2853L36.5381 45.7958L49.6687 63.3571H63.8867L44.4024 37.2984L61.681 18.627H57.5022L42.5358 34.8004L30.4422 18.627H16.2241H16.2214ZM22.3648 21.7052H28.8951L57.7376 60.2788H51.2074L22.3648 21.7052Z" fill="white"/>
</svg>
