<svg width="80" height="80" viewBox="0 0 80 80" fill="none" xmlns="http://www.w3.org/2000/svg">
<path d="M79.9944 40.0014C79.9944 60.2039 65.0196 76.9057 45.5661 79.616C43.7472 79.8683 41.8862 80 39.9972 80C37.8167 80 35.6754 79.8262 33.5902 79.4899C14.546 76.4237 0 59.9096 0 40.0014C0 17.9098 17.9092 0 40 0C62.0908 0 80 17.9098 80 40.0014H79.9944Z" fill="#31746D"/>
<path d="M40.0881 19.6758C28.5611 19.6758 19.1802 28.7112 19.1761 39.8155C19.1734 43.3665 20.1381 46.8322 21.9671 49.8846L19 60.3209L30.0866 57.5205C33.1706 59.1337 36.5996 59.9751 40.0799 59.9727H40.0881C51.615 59.9727 60.9959 50.936 61 39.8317C61.0027 34.453 58.8295 29.39 54.8802 25.5842C50.9322 21.7771 45.6822 19.6771 40.0881 19.6758ZM40.0881 56.5708H40.0813C36.9625 56.5708 33.9032 55.7633 31.2342 54.2377L30.5974 53.8746L24.021 55.5357L25.7769 49.3576L25.3637 48.7249C23.628 46.0777 22.704 42.9809 22.7055 39.8155C22.7095 30.5849 30.508 23.0778 40.0948 23.0778C44.7365 23.0791 49.1004 24.8228 52.3832 27.9864C55.666 31.1499 57.472 35.3567 57.4693 39.8304C57.4652 49.0609 49.6681 56.5708 40.0867 56.5708H40.0881ZM49.6221 44.0317C49.0991 43.7811 46.5303 42.5631 46.0507 42.3937C45.5724 42.2271 45.2243 42.1404 44.8761 42.6444C44.5292 43.1484 43.5266 44.2824 43.2232 44.617C42.917 44.953 42.6121 44.9937 42.0892 44.743C41.5662 44.491 39.8821 43.9599 37.8878 42.2447C36.3338 40.9115 35.2852 39.264 34.9803 38.7587C34.6755 38.256 34.9478 37.9837 35.2093 37.7331C35.4437 37.5095 35.7323 37.1464 35.9924 36.8524C36.2525 36.5584 36.3392 36.3484 36.5154 36.0124C36.6888 35.6778 36.6021 35.3824 36.4706 35.1318C36.3392 34.8784 35.296 32.4018 34.8584 31.3951C34.4357 30.4142 34.0048 30.5457 33.6837 30.5294C33.3789 30.5158 33.0321 30.5118 32.6812 30.5118C32.3357 30.5118 31.768 30.6378 31.2884 31.1418C30.8101 31.6458 29.4594 32.8624 29.4594 35.3391C29.4594 37.8171 31.3317 40.2097 31.5932 40.5457C31.8547 40.8804 35.2784 45.9651 40.5203 48.1464C41.7667 48.6626 42.7395 48.9728 43.4995 49.2058C44.7514 49.5893 45.8908 49.5337 46.7904 49.405C47.793 49.26 49.8822 48.1884 50.3157 47.0137C50.752 45.8391 50.752 44.8311 50.6219 44.6211C50.4946 44.4111 50.145 44.2851 49.6221 44.0317Z" fill="white"/>
</svg>
